<?xml version="1.0" encoding="utf-8"?>
<!-- Svg Vector Icons : http://www.onlinewebfonts.com/icon -->
<!DOCTYPE svg PUBLIC "-//W3C//DTD SVG 1.1//EN" "http://www.w3.org/Graphics/SVG/1.1/DTD/svg11.dtd">
<svg version="1.1" xmlns="http://www.w3.org/2000/svg" xmlns:xlink="http://www.w3.org/1999/xlink" x="0px" y="0px" viewBox="0 0 1000 1000" enable-background="new 0 0 1000 1000" xml:space="preserve">
<metadata> Svg Vector Icons : http://www.onlinewebfonts.com/icon </metadata>
<g><g transform="translate(0.000000,512.000000) scale(0.100000,-0.100000)"><path d="M4066.3,5004.4c-383.4-72.9-697.9-237.7-975.9-517.6c-348.9-348.9-517.6-738.1-538.7-1251.9l-11.5-255H5000h2459.8l-11.5,255c-21.1,513.8-189.8,903-538.7,1251.9c-243.5,243.5-506.2,395-853.2,492.7c-138,38.3-195.6,40.3-998.9,44.1C4411.4,5027.4,4171.8,5023.6,4066.3,5004.4z"/><path d="M2268,2531.2c-57.5-86.3-111.2-272.2-120.8-414.1l-7.7-143.8l63.3-23c42.2-15.3,132.3-99.7,256.9-237.7c500.4-556,803.3-765,1112-765c161,0,272.3,59.4,498.5,264.6c360.4,327.8,442.9,393,582.8,460.1c118.9,57.5,168.7,69,299.1,76.7c295.3,15.3,475.5-74.8,855.1-429.5c324-301,421.8-360.4,600.1-368.1c318.2-15.3,615.4,186,1133.1,761.1c124.6,138,214.7,222.4,256.9,237.7l63.2,23l-7.7,143.8c-9.6,141.9-63.2,327.8-120.8,414.1l-28.8,46H5000H2296.7L2268,2531.2z M4472.8,2143.9c59.4-26.8,124.6-122.7,124.6-180.2c0-13.4-13.4-51.8-30.7-88.2c-28.8-59.4-78.6-90.1-490.8-295.2c-251.1-126.5-479.3-230.1-506.1-230.1c-70.9,0-149.5,47.9-176.4,105.4c-13.4,26.8-23,105.4-23,172.5v124.6h-117c-145.7,0-233.9,40.3-274.2,124.6c-38.3,78.6-38.3,93.9,0,172.5c55.6,120.8,80.5,124.6,789.9,124.6C4313.6,2174.6,4419.1,2170.7,4472.8,2143.9z M6926.8,2143.9c59.4-26.8,124.6-122.7,124.6-180.2c0-13.4-13.4-51.8-30.7-86.3c-40.3-84.4-128.5-124.6-274.2-124.6h-117v-124.6c0-67.1-9.6-143.8-21.1-168.7c-24.9-55.6-111.2-109.3-178.3-109.3c-26.8,0-255,103.5-506.2,230.1c-412.2,205.1-462,235.8-490.8,295.2c-38.3,80.5-38.3,95.9,0,174.5c55.6,120.8,80.5,124.6,789.9,124.6C6767.7,2174.6,6873.1,2170.7,6926.8,2143.9z"/><path d="M4858.1,1321.4c-99.7-38.3-172.5-95.9-421.8-329.8c-368.1-348.9-573.2-454.4-883.8-452.5c-99.7,1.9-212.8,13.4-268.4,32.6c-51.8,15.3-95.9,26.8-99.7,24.9c-1.9-3.8,97.8-107.4,222.4-232c220.5-218.6,230.1-226.2,293.3-214.7c99.7,17.3,318.3,128.5,554.1,279.9c628.8,404.5,862.8,404.5,1491.6,0c235.8-151.5,454.4-262.7,554.1-279.9c63.3-11.5,72.9-3.8,293.3,214.7c124.6,124.6,224.3,228.1,222.4,232c-3.8,1.9-47.9-9.6-99.7-26.9c-59.4-17.3-166.8-28.8-278-30.7c-312.5,0-496.6,97.8-904.9,479.3c-134.2,124.6-283.7,247.3-333.6,274.2C5086.3,1348.3,4957.8,1359.8,4858.1,1321.4z"/><path d="M1936.3,1016.6C1713.9,684.9,1666,267,1817.4-28.3c103.5-203.2,59.4-220.5,475.5,193.6l368.1,370l-314.4,314.4l-312.5,312.5L1936.3,1016.6z"/><path d="M7649.6,846L7339,535.4l370-368.1l368.1-370l42.2,63.3c74.8,113.1,116.9,214.7,140,333.6c44.1,251.1-32.6,579-193.6,820.6c-53.7,78.6-97.8,143.8-99.7,143.8S7822.1,1018.5,7649.6,846z"/><path d="M4913.7,316.8c-84.4-21.1-232-101.6-494.6-264.6c-285.7-180.2-469.7-266.5-649.9-304.8c-101.6-23-293.3-107.4-694-302.9L2523-825.8l9.6-210.9c32.6-640.3,329.8-1081.3,828.2-1236.6c164.9-49.8,481.2-69,682.5-40.3c297.2,42.2,464,132.3,538.7,289.5l44.1,93.9H5000h373.9l44.1-93.9c51.8-109.3,151.5-187.9,299.1-237.7c255-86.3,676.8-88.2,943.3-3.8c485.1,153.4,789.9,623.1,799.5,1227l3.8,210.9l-544.5,270.3c-406.4,203.2-579,279.9-684.4,302.9c-182.1,40.3-368.1,126.6-661.5,310.6C5186,299.6,5053.7,351.3,4913.7,316.8z M5166.8-160.6c49.8-42.2,239.7-197.5,418-347c180.2-151.5,335.5-278,348.9-283.8c13.4-5.8,51.8,11.5,86.3,34.5c46,34.5,94,47.9,187.9,51.7c155.3,7.7,262.6-42.2,352.8-166.8c53.7-74.8,59.4-94,59.4-230.1c0-126.5-7.7-159.1-47.9-218.6c-151.5-224.3-441-249.2-634.6-53.7c-47.9,47.9-92,97.8-95.9,107.4C5830.1-1236.1,5024.9-567,5000-567c-24.9,0-828.2-667.2-851.2-707.4c-9.6-17.3-53.7-67.1-95.9-109.3c-255-258.8-682.5-82.4-682.5,279.9c0,224.3,149.5,385.4,371.9,398.8c107.4,7.7,136.1,1.9,220.5-44.1c88.2-47.9,101.6-51.8,130.4-24.9c97.8,82.4,732.4,607.8,780.3,644.2C4959.7-62.8,5055.6-72.4,5166.8-160.6z"/><path d="M2603.5-116.5c-193.6-193.6-347-360.4-339.4-368.1c13.4-11.5,926,427.6,943.3,456.3c3.8,5.8-49.8,69-120.8,138l-128.5,128.5L2603.5-116.5z"/><path d="M6909.5,105.9L6777.2-28.3l471.6-233.9c258.8-130.4,477.4-230.1,487-222.4c7.7,7.7-145.7,174.5-341.2,370l-352.8,352.8L6909.5,105.9z"/><path d="M1980.4-1939.7c-84.4-49.9-164.9-99.7-180.2-115c-23-21.1,105.4-232,834-1376.6L3495-4784.9h1505h1505l860.8,1353.5c728.5,1144.6,857,1355.5,834,1376.6c-15.4,15.3-95.9,65.2-180.2,115c-239.6,140-291.4,124.6-458.2-130.4c-224.3-337.4-559.8-556-979.7-634.6c-233.9-44.1-680.6-30.7-897.3,26.8c-184,47.9-352.8,136.1-477.4,249.2c-82.4,72.9-109.3,86.3-195.5,93.9c-97.8,7.7-103.5,5.8-209-86.3c-241.6-212.8-481.2-291.4-924.1-306.8c-454.4-15.3-742,57.5-1054.5,264.6c-163,109.3-283.7,235.8-402.6,417.9C2273.7-1817.1,2216.2-1803.6,1980.4-1939.7z"/><path d="M1050.5-2129.6c-301-159.1-462-320.2-563.7-573.3c-24.9-61.3-122.7-502.3-224.3-1010.4c-166.8-835.9-178.3-903-151.5-950.9c15.3-26.8,49.9-65.2,76.7-86.3c46-32.6,109.3-34.5,1432.2-30.7l1384.2,5.8l-866.6,1365.1c-513.8,809.1-878.1,1365-895.3,1365C1226.9-2045.2,1140.7-2083.5,1050.5-2129.6z"/><path d="M7862.4-3410.2l-866.6-1365.1l1384.2-5.8c1322.9-3.8,1386.2-1.9,1432.2,30.7c26.8,21.1,61.3,59.4,76.7,86.3c26.9,47.9,15.3,115-151.5,950.9c-101.6,508.1-199.4,949-224.3,1010.4c-63.3,157.2-174.5,308.7-291.4,400.7c-109.3,86.3-421.8,258.8-465.9,258.8C8740.5-2045.2,8339.8-2658.7,7862.4-3410.2z"/></g></g>
</svg>